<svg xmlns="http://www.w3.org/2000/svg" viewBox="0 0 404.39 411.76"><defs><style>.cls-1{fill:#0c1820;}.cls-2{fill:#f91322;}.cls-3{fill:#d5d1c2;}</style></defs><g id="Layer_2" data-name="Layer 2"><g id="Layer_1-2" data-name="Layer 1"><polygon class="cls-1" points="202.23 231.03 202.12 230.91 202.27 230.96 202.23 231.03"/><path class="cls-1" d="M129.62,76.55a72.17,72.17,0,0,0-3.46,11.77c-.18.84-.35,1.71-.5,2.56-.23,1.29-.44,2.58-.63,3.89s-.34,2.63-.49,4c-.3,2.81-.5,5.66-.64,8.5a114.36,114.36,0,0,1,6.49-32.52C130.13,75.32,129.88,75.93,129.62,76.55ZM143,77.79A10.15,10.15,0,0,1,144.81,73c.24-.31.48-.62.76-.92l.43-.44a11.89,11.89,0,0,1,2.07-1.62C144.1,71.59,142.64,73.72,143,77.79ZM197.84,243.4A115.63,115.63,0,0,1,169.26,222c-14.59-14.58-24.93-31.94-33-50.53l.24.62c.3.75.61,1.5.93,2.26,1,2.47,2.11,4.94,3.24,7.36l.93,2c2.12,4.43,4.42,8.76,6.88,12.95.26.43.5.87.76,1.29s.65,1.1,1,1.63.78,1.27,1.18,1.89c1.49,2.37,3,4.68,4.63,6.92.6.84,1.2,1.66,1.81,2.47s1.22,1.64,1.85,2.44a2.88,2.88,0,0,0,.22.27c.57.75,1.16,1.48,1.75,2.2s1.31,1.59,2,2.36c.32.39.66.77,1,1.15s.67.77,1,1.14l1,1.12c.54.58,1.08,1.15,1.63,1.72s1,1,1.51,1.52l.91.89c.41.41.82.8,1.23,1.19,1.08,1,2.17,2,3.28,2.94.37.32.74.64,1.12.95L178,232q.56.45,1.11.87l1.18.88c.41.31.81.61,1.23.9.58.41,1.16.82,1.74,1.21h0l1.55,1,.4.25c.53.34,1.07.67,1.59,1h0c.6.37,1.2.71,1.81,1s1,.54,1.48.81a65.48,65.48,0,0,0,7.82,3.51ZM142.93,57.64c5-2.73,10.32-4.94,15.3-7.77A42.07,42.07,0,0,0,142.93,57.64Zm9.49,40.82c-.39-.4-.77-.81-1.14-1.22-.76-.83-1.48-1.7-2.16-2.6a44.33,44.33,0,0,0,3,4,22.1,22.1,0,0,0,6.28,4.93A38.23,38.23,0,0,1,152.42,98.46ZM159,130.27c-1.76,12.27-.39,24.5,3.3,36.58A110.18,110.18,0,0,0,181,202.17C165.72,181.21,157.6,155.33,159,130.27Zm2.88-76.7a10.4,10.4,0,0,0-1-2.72c0,.15.07.3.1.47a24.43,24.43,0,0,0,1.8,5.54C162.46,55.78,162.19,54.63,161.91,53.57Zm2.52,10.61-.41.14q-4.43,1.5-8.82,3.09l1.27-.31,2-.51.67-.18c.65-.18,1.29-.36,1.88-.57a5.89,5.89,0,0,0,.59-.21h0l.54-.2.52-.22.5-.24a3.5,3.5,0,0,0,.42-.24,4.86,4.86,0,0,0,.54-.33h0l.28-.21Z"/><path class="cls-1" d="M197.92,243.45c12.56,4.64,26.25,5,40.7-.57Z"/><path class="cls-1" d="M372.87,41.27a.88.88,0,0,1,0,.35A.62.62,0,0,0,372.87,41.27Zm-.14-.78h0s0,.06,0,.09S372.73,40.53,372.73,40.49ZM324,204.75c-.08,1.38-.12,2.8-.3,4.17.19-1.38.23-2.79.31-4.17v-.53C324,204.39,324,204.57,324,204.75Zm-2.07-9.83-.12-.37c0,.12.07.25.11.37s.06.19.09.29ZM175.54,52.1h0c0-.18,0-.35.07-.52C175.59,51.76,175.56,51.93,175.54,52.1ZM164.46,64.16l0,0-.24.2.28-.21a1.42,1.42,0,0,0,.25-.24A2.68,2.68,0,0,1,164.46,64.16Zm-2.55-10.59c.28,1.06.55,2.21.88,3.29,0,0,0,0,0,0,.52,1.64,1.23,3.1,2.48,3.77A68,68,0,0,1,161.91,53.57Zm-2.75,12.84c.65-.18,1.29-.36,1.88-.57C160.44,66,159.81,66.22,159.16,66.41Zm-4.06,1c-1.45.36-2.86.73-4.08,1.15,1.23-.42,2.63-.78,4.08-1.14l.08,0Zm-46.21,50.39-.06.63c0-.21,0-.42.07-.63Z"/><path class="cls-1" d="M379,18.67a87,87,0,0,1-12.88,16.9,53.56,53.56,0,0,1-10.73,8.85A45.8,45.8,0,0,1,344,49.16c-2.82.76-15.28,4-43.52.51-24.87-3.05-38.23-8.32-44.13-10.88-1.72-.74-3.11-1.39-4-1.84A67.07,67.07,0,0,0,269.93,23.8,67.21,67.21,0,0,0,284.6,0a223.12,223.12,0,0,1-33.53,9.83c-3.5.72-16.36,2.79-33.84,4.74-9.92,1.1-20.07,0-29.83,2.63C176.69,20.1,167.29,25,162,35.5a5.06,5.06,0,0,1-2.66,2.15c-5.92,2.79-11.86,5.58-17.6,8.68C131.36,52,123.62,60.58,116.1,69.45a105,105,0,0,0-15.79,24.82c-4.48,10-7.86,20.38-8.89,31.47a146.9,146.9,0,0,0,.09,30.81c3,25.44,14.13,46.91,32,64.9a100.74,100.74,0,0,0,17.93,14.38,105.14,105.14,0,0,0,42.21,14.91,107,107,0,0,0,55-7.86c-14.45,5.6-28.14,5.21-40.7.57a65.48,65.48,0,0,1-7.82-3.51c-.5-.27-1-.53-1.48-.81s-1.21-.68-1.81-1h0c-.52-.31-1.06-.64-1.59-1l-.4-.25-1.55-1h0c-.58-.39-1.16-.79-1.74-1.21-.42-.29-.82-.59-1.23-.9l-1.18-.88q-.56-.42-1.11-.87l-1.6-1.3c-.38-.31-.75-.63-1.12-.95-1.11-1-2.2-1.94-3.28-2.94-.41-.39-.82-.78-1.23-1.19s-.61-.58-.91-.89c-.51-.5-1-1-1.51-1.52s-1.09-1.14-1.63-1.72l-1-1.12c-.34-.37-.68-.76-1-1.14s-.68-.76-1-1.15c-.68-.77-1.33-1.56-2-2.36s-1.18-1.45-1.75-2.2a2.88,2.88,0,0,1-.22-.27c-.63-.8-1.25-1.62-1.85-2.44s-1.22-1.63-1.81-2.47c-1.59-2.24-3.14-4.55-4.63-6.92-.41-.62-.8-1.25-1.18-1.89s-.66-1.08-1-1.63-.5-.86-.76-1.29c-2.46-4.19-4.76-8.52-6.88-12.95l-.93-2c-1.13-2.42-2.21-4.89-3.24-7.36-.32-.76-.63-1.51-.93-2.26l-.24-.62-.06-.13a190.74,190.74,0,0,1-8.52-27.21c-.24-1.05-.48-2.11-.71-3.16v0c-.13-.63-.26-1.26-.38-1.87-.5-2.5-.93-5-1.3-7.4-.1-.6-.18-1.21-.26-1.82s-.17-1.21-.25-1.81c-.27-2.21-.5-4.38-.66-6.52,0-.35-.06-.68-.07-1,0-.69-.09-1.38-.13-2.06-.14-2.73-.2-5.4-.15-8,0-.64,0-1.27,0-1.9l.06-1.28c.14-2.84.34-5.69.64-8.5.15-1.33.31-2.65.49-4s.39-2.6.63-3.89c.15-.85.32-1.72.5-2.56a72.17,72.17,0,0,1,3.46-11.77c.25-.62.5-1.23.76-1.84a.05.05,0,0,1,0,0,47,47,0,0,1,7.71-12.4c.58-.66,1.19-1.32,1.83-1.94.94-.93,1.94-1.83,3-2.69a42.07,42.07,0,0,1,15.3-7.77,2.18,2.18,0,0,1,1.66,0,1.72,1.72,0,0,1,.44.28,3.32,3.32,0,0,1,.55.66h0a10.4,10.4,0,0,1,1,2.72,68,68,0,0,0,3.37,7.08,2.79,2.79,0,0,1,.16,2.27,1.53,1.53,0,0,1-.21.4,2,2,0,0,1-.28.38h0a1.21,1.21,0,0,1-.23.22,1.42,1.42,0,0,1-.25.24l-.28.21h0a4.86,4.86,0,0,1-.54.33,3.5,3.5,0,0,1-.42.24l-.5.24-.52.22a4.3,4.3,0,0,1-.54.2h0a5.89,5.89,0,0,1-.59.21c-.59.21-1.23.39-1.88.57l-.67.18-2,.51-1.27.31h0l-.08,0c-1.45.36-2.85.72-4.08,1.14A9.62,9.62,0,0,0,148.09,70h0A11.89,11.89,0,0,0,146,71.67l-.43.44c-.28.3-.52.61-.76.92A10.15,10.15,0,0,0,143,77.79a16.6,16.6,0,0,0,.91,7.35c.21.64.46,1.29.73,1.93a36.72,36.72,0,0,0,4.51,7.57c.68.9,1.4,1.77,2.16,2.6.37.41.75.82,1.14,1.22a38.23,38.23,0,0,0,6,5.06s.05,0,.07,0l0,0c1.64.91,3.35,1.68,5,2.5h0A93.12,93.12,0,0,0,159,130.25v0c-1.43,25.06,6.69,50.94,22,71.9a113.5,113.5,0,0,0,11.51,13.48c.78.79,1.57,1.56,2.39,2.32s1.62,1.52,2.46,2.26q3.33,3,6.9,5.64,1.78,1.35,3.63,2.61c1.22.85,2.48,1.67,3.74,2.47a102.32,102.32,0,0,0,27,11.93,88,88,0,0,0,23.3-12.21c2.4-1.7,4.5-2.36,7.44-1.28a44.94,44.94,0,0,0,17.3,2.66c6.84-.27,13.72-.54,20.5-1.16,12.22-1.13,20.89-7.67,25.29-19.5,3.52-9.44,2.16-19.23,2.5-28.92.18-4.91-1.71-8.87-4.72-12.56-4.88-6-10.39-11.46-13.67-18.59-3.81-8.29-3.63-17.12-3.67-25.94,0-1.53,1-1.44,2-1.32,6.52.8,12.85-.43,18.89-2.47a27.72,27.72,0,0,0,16.51-14.2c1.87-3.8,1.24-4.88-2.34-7.14a95.64,95.64,0,0,0-22.4-10c-1.66-.54-4.39-1-4.07-3s3-1.56,4.79-1.55a67.74,67.74,0,0,0,19.24-3.07,55,55,0,0,0,21-11c3.68-3.16,11.09-9.6,14.72-20.56C386.32,35.87,380.67,22.41,379,18.67ZM145,216.89l-3.1,2.41a99.21,99.21,0,0,1-37.2-102.46l4.18,1h0c0,.21,0,.42-.07.63-.06.65-.12,1.32-.18,2,0,.48-.08,1-.11,1.46a119.71,119.71,0,0,0,1,26.27c.13,1,.3,1.95.47,2.94,0,.31.11.62.17.94.26,1.45.56,2.92.89,4.41.26,1.17.54,2.36.85,3.56.18.73.38,1.48.59,2.22.8,2.94,1.74,5.94,2.85,9A120.38,120.38,0,0,0,145,216.89ZM205,55.57a.55.55,0,0,1,0-.17,1.38,1.38,0,0,1,0-.45,1.68,1.68,0,0,0,0,.45A1.11,1.11,0,0,0,205,55.57Zm3.8,5.41c.19.16.37.33.55.47A5.74,5.74,0,0,1,208.84,61Zm2.23-9.39-.31,0a3,3,0,0,1,.31,0h.4ZM195.25,36.21a63.33,63.33,0,0,0-8.2,2l-.78.29a17.61,17.61,0,0,0-6.15,3.68c-.2.18-.38.37-.57.57a12.45,12.45,0,0,0-1.07,1.31,15.89,15.89,0,0,0-.94,1.5c-.12.22-.24.45-.35.68q-.28.6-.54,1.26c-.12.32-.24.66-.35,1s-.25.89-.36,1.36-.15.72-.22,1.09c0,.21-.07.42-.1.63s-.05.34-.07.52h0a9.44,9.44,0,0,1-.58-.93c-.09-.15-.17-.31-.27-.45a3.94,3.94,0,0,1-.23-.46,3.84,3.84,0,0,1-.23-.45,10.75,10.75,0,0,1-1.15-5.35,6.67,6.67,0,0,1,.14-1.17c0-.24.1-.48.16-.73h0a7.63,7.63,0,0,1,.23-.73,8.83,8.83,0,0,1,.33-.89l.27-.59.22-.43.23-.42,0-.06,0-.07c.13-.23.27-.46.41-.68a.37.37,0,0,0,.07-.12l.35-.52a2.43,2.43,0,0,1,.14-.2c.13-.19.26-.37.4-.54a1.73,1.73,0,0,1,.15-.2l.46-.57.17-.18c.14-.17.3-.34.46-.51a.43.43,0,0,1,.1-.09c.16-.18.33-.34.5-.51s.15-.13.22-.21l.51-.45c.16-.15.33-.28.51-.43a24.94,24.94,0,0,1,4.13-2.66,6.53,6.53,0,0,1,.7-.35l.84-.41c.47-.22,1-.42,1.44-.61s.76-.3,1.14-.43l.3-.11,1-.32.49-.15c.68-.21,1.38-.4,2.07-.57a.32.32,0,0,1,.14,0c.37-.1.73-.18,1.1-.26l.88-.18c.28-.06.56-.12.85-.16.79-.15,1.59-.28,2.39-.39l.47-.06a3.78,3.78,0,0,1,.47-.06l.57-.08,1.48-.17h0l1.52-.15,1.52-.14,1.51-.13c.51,0,1-.08,1.52-.12l3-.26c17.77-1.64,35.45-3.68,52.23-10.29a1.76,1.76,0,0,1,2.1.17,90.92,90.92,0,0,1-36.93,15.41C215.9,33.59,205.46,34.18,195.25,36.21Zm55.22,82.51s-.05.1-.08.14a2.73,2.73,0,0,1-.2.25,1.77,1.77,0,0,1-.55.32l-.32.09a4.21,4.21,0,0,1-.63.06h-.23c-.42,0-.85,0-1.23,0l-.43,0c-5.08.07-8.83-2.29-10.15-6.23-.41-1.21-.77-2.41,1.13-2.56l1,0h.59c.49,0,1,0,1.46,0,.28,0,.56,0,.84.06a3.85,3.85,0,0,1,.58.08,2.53,2.53,0,0,1,.55.09,6.18,6.18,0,0,1,.62.12c.18,0,.36.09.53.15a3.54,3.54,0,0,1,.55.18l.53.21a7.48,7.48,0,0,1,.81.39,1.2,1.2,0,0,1,.21.13,1.23,1.23,0,0,1,.25.14l.25.17a8.47,8.47,0,0,1,1.21,1,1.26,1.26,0,0,1,.2.2,4,4,0,0,1,.35.37l.25.3c.1.11.19.23.29.36l.14.19.27.35c.27.35.54.71.77,1.07l.18.32a1.91,1.91,0,0,1,.16.32c0,.11.09.22.13.33a3,3,0,0,1,.09.32,2.2,2.2,0,0,1,0,.44A1.64,1.64,0,0,1,250.47,118.72Zm62.45,95.7a2.2,2.2,0,0,0,.28-.18,6.6,6.6,0,0,0,.91-.66l.18-.15c.17-.15.34-.3.5-.47a10,10,0,0,0,1.44-1.74,3.24,3.24,0,0,0,.21-.35,5.62,5.62,0,0,0,.44-.8,2.39,2.39,0,0,0,.12-.22l.09-.23c.08-.16.15-.34.22-.51s.08-.2.11-.3a1.5,1.5,0,0,0,.11-.34l.09-.29c0-.12.07-.23.1-.35a.31.31,0,0,0,0-.09,3.48,3.48,0,0,0,.1-.44c.05-.24.09-.5.12-.75.1-.79.18-1.58.21-2.36,0-.48,0-1,0-1.45a16,16,0,0,0-.16-1.82h0c-.06-.36-.13-.71-.21-1.07a.77.77,0,0,0-.07-.26,5.36,5.36,0,0,0-.14-.54l-.18-.54a1.29,1.29,0,0,1-.08-.26c-.07-.18-.12-.35-.17-.52a4,4,0,0,1,.08-2.71,5.18,5.18,0,0,1,.7-1.18l.15-.17.15-.15a2.56,2.56,0,0,1,1.59-.7h.33l.13,0,.15,0h0a1.53,1.53,0,0,1,.32.13,1.19,1.19,0,0,1,.31.23,1.37,1.37,0,0,1,.16.18l.05.06,0,.07a1.27,1.27,0,0,1,.18.29c.05.11.11.24.15.35s.08.25.13.38l.12.37.08.29.09.28c.17.57.35,1.15.53,1.73.12.38.24.76.34,1.14s.18.58.26.87l.22.85v0c.08.28.14.56.2.84a5.86,5.86,0,0,1,.1.58,4.57,4.57,0,0,1,.12.74c0,.21.06.44.08.67a7.7,7.7,0,0,1,.05.83,7.09,7.09,0,0,1,0,.8v.19c-.08,1.38-.12,2.79-.31,4.17h0c0,.22-.06.43-.1.64s0,.31-.09.46-.08.37-.13.55a8,8,0,0,1-.29.95c0,.13-.09.27-.14.4l-.21.48-.24.47c-.2.37-.4.72-.61,1.06s-.41.64-.63.95l0,.05c-.19.27-.38.52-.57.78a2.61,2.61,0,0,1-.22.27c-.2.27-.41.51-.62.76,0,0,0,0,0,0-.25.28-.51.56-.78.81a3.59,3.59,0,0,1-.39.39,14.43,14.43,0,0,1-2.28,1.8l-.48.3c-.16.1-.34.19-.5.28l-.51.26-.64.29a.23.23,0,0,1-.1,0l-.75.29c-.29.11-.58.2-.88.29l-.67.17-.71.16a14.81,14.81,0,0,1-1.49.2l-.75.05-.77,0q-.75,0-1.53-.06c-.43,0-.84-.09-1.25-.15l-.6-.09c-.59-.1-1.17-.23-1.73-.38l-.44-.13a8.63,8.63,0,0,1-.86-.28c-.4-.15-.79-.3-1.18-.47s-.66-.31-1-.49a16.14,16.14,0,0,1-2-1.24c-.14-.1-.26-.2-.39-.31s-.46-.38-.68-.58l-.46-.43c-.14-.15-.29-.29-.43-.45a5.74,5.74,0,0,1-.41-.45l-.56-.66-.36-.49A3.21,3.21,0,0,1,294,215l-.07-.09c-.08-.14-.17-.27-.26-.41a.08.08,0,0,0,0,0,10.65,10.65,0,0,1-.63-1.09.93.93,0,0,1-.05-.1l-.06-.1-.19-.38a1.86,1.86,0,0,0-.1-.2c-.12-.24-.24-.5-.34-.75,0-.08-.07-.17-.1-.26a.91.91,0,0,1-.07-.14l-.19-.48c-.13-.33-.24-.66-.35-1s-.29-.83-.42-1.26c-.08-.24-.16-.47-.22-.71s-.19-.66-.28-1-.16-.61-.22-.92c0-.11-.05-.22-.07-.32-.07-.26-.12-.51-.17-.78a26.41,26.41,0,0,1-.48-4.81c0-.12,0-.24,0-.36a4.34,4.34,0,0,0-.06-.64c0-.17,0-.32-.08-.48a2.55,2.55,0,0,0-.11-.33,1.69,1.69,0,0,0-.11-.27,1.79,1.79,0,0,0-.13-.22.53.53,0,0,0-.11-.15.42.42,0,0,0-.12-.15l-.1-.11-.08-.07-.09-.06a.67.67,0,0,0-.19-.14l-.24-.13L288,197l-.28-.1-.23-.06a6.24,6.24,0,0,0-.69-.11,3.36,3.36,0,0,1-1.53-.44,1.83,1.83,0,0,1-.26-.21c-.66-.67-.41-1.77.36-3,1.12-1.87,2.49-2.48,4.24-2a6,6,0,0,1,.6.2l.64.3h0l.74.42.65.47a6.93,6.93,0,0,1,.64.56l.13.14.06.06.09.1.1.11.18.22a.7.7,0,0,1,.15.2,1.31,1.31,0,0,1,.23.31,3.73,3.73,0,0,1,.25.39,5.7,5.7,0,0,1,.32.6,9.05,9.05,0,0,1,.5,1.25c.07.22.13.45.19.67s.1.38.13.57a5,5,0,0,1,.11.53c.05.21.07.41.1.62s.05.31.07.47c.1.76.17,1.53.23,2.31a20.43,20.43,0,0,0,2.25,8.12c.2.36.41.72.62,1.07a14.26,14.26,0,0,0,.94,1.29,11.52,11.52,0,0,0,.82.88c.16.15.33.31.5.44s.34.29.51.42a9.66,9.66,0,0,0,2.88,1.5,9.35,9.35,0,0,0,1.26.33,4.53,4.53,0,0,0,.49.08h0a8.7,8.7,0,0,0,1,.09,11.61,11.61,0,0,0,1.76-.05c.42-.06.86-.12,1.3-.21a9.81,9.81,0,0,0,1.28-.37l.52-.22a1.56,1.56,0,0,0,.26-.11l.15-.08.12-.06.34-.19Zm60-172.8a12.08,12.08,0,0,1-.38,1.16c-.06.12-.11.24-.16.36-.3.63-.61,1.25-.94,1.85s-.56,1-.86,1.56c-.1.17-.2.35-.31.52-.25.41-.49.82-.76,1.21a4.4,4.4,0,0,1-.3.45c-.22.35-.44.69-.68,1s-.29.42-.45.63c-.32.46-.66.92-1,1.35s-.57.71-.86,1.06l-.08.09c-.15.19-.32.38-.48.56l-.14.17q-.37.43-.78.84a.18.18,0,0,1-.07.08,6.38,6.38,0,0,1-.51.53.24.24,0,0,1-.1.1c-.24.26-.48.51-.75.76a5,5,0,0,1-.41.39c-.4.39-.8.76-1.21,1.12,0,0,0,0,0,0-.39.34-.79.68-1.2,1l-.18.15-.54.42c-.37.3-.75.58-1.13.85-1.06.76-2.16,1.49-3.3,2.16-.54.32-1.1.64-1.66.94-.09.06-.19.1-.28.15-.44.23-.89.46-1.33.67l-.47.23c-.55.26-1.1.51-1.67.75-13.91,5.94-28.58,5.56-43.29,4.12a5.39,5.39,0,0,1-.94-.19l-.34-.13a.25.25,0,0,0-.11,0l-.26-.15a2.56,2.56,0,0,1-.42-.28,2.35,2.35,0,0,1-.29-.26,3.26,3.26,0,0,1-.31-.33l-.14-.18a1.4,1.4,0,0,1-.13-.18l-.51-.77c-.34-.52-.69-1.05-1-1.59s-.71-1.11-1.08-1.7c-.57-.89-1.16-1.85-1.83-2.89.8.17,1.59.33,2.38.47s1.43.26,2.14.38l.23,0c1.61.27,3.21.5,4.8.68l1.5.17.16,0,1.25.12,2,.17,1.7.11h.2c.72,0,1.45.08,2.17.11l1.26.05,1.46,0c.75,0,1.51,0,2.26,0,.93,0,1.86,0,2.78,0,1.84,0,3.67-.12,5.5-.22h0l2.74-.18c.48,0,1-.07,1.43-.12l1.42-.14.71-.08c.44-.06.87-.11,1.29-.18s.73-.1,1.09-.16c.55-.08,1.1-.17,1.65-.28l.83-.16.27-.07c.42-.09.83-.17,1.24-.27s1-.24,1.56-.39c.32-.07.63-.16.94-.26s.69-.19,1-.31.69-.2,1-.31l.09,0c.48-.15,1-.32,1.42-.5s.94-.35,1.41-.55a40.82,40.82,0,0,0,5.47-2.7c.45-.25.89-.52,1.33-.8s.88-.57,1.31-.87a7.07,7.07,0,0,0,.63-.44c.39-.27.77-.55,1.15-.84s.52-.4.77-.61q.71-.56,1.38-1.14l.35-.31a.87.87,0,0,0,.11-.09l.08-.09.37-.31c1.12-1,2.2-2,3.25-3.12.32-.32.63-.65.93-1q.67-.74,1.32-1.5T370.85,43l.63-.81c.42-.54.83-1.1,1.24-1.67v0h0s0,.06,0,.1a.25.25,0,0,1,0,.09,1.43,1.43,0,0,1,0,.16,0,0,0,0,1,0,0,.37.37,0,0,1,0,.09c0,.08,0,.14,0,.2a.43.43,0,0,1,0,.11A.62.62,0,0,1,372.89,41.62Z"/><path class="cls-2" d="M145,216.89l-3.1,2.41a99.21,99.21,0,0,1-37.2-102.46l4.18,1h0c0,.21,0,.42-.07.63-.06.65-.12,1.32-.18,2,0,.48-.08,1-.11,1.46a119.71,119.71,0,0,0,1,26.27c.13,1,.3,1.95.47,2.94,0,.31.11.62.17.94.26,1.45.56,2.92.89,4.41.26,1.17.54,2.36.85,3.56.18.73.38,1.48.59,2.22.8,2.94,1.74,5.94,2.85,9A120.38,120.38,0,0,0,145,216.89Z"/><path class="cls-2" d="M238.62,242.88c-14.45,5.6-28.14,5.21-40.7.57a65.48,65.48,0,0,1-7.82-3.51c-.5-.27-1-.53-1.48-.81s-1.21-.68-1.81-1h0c-.52-.31-1.06-.64-1.59-1l-.4-.25-1.55-1h0c-.58-.39-1.16-.8-1.74-1.21-.42-.29-.82-.59-1.23-.9l-1.18-.88q-.56-.42-1.11-.87l-1.6-1.3c-.38-.31-.75-.63-1.12-.95-1.11-1-2.2-1.94-3.28-2.94-.41-.39-.82-.78-1.23-1.19l-.91-.89c-.51-.5-1-1-1.51-1.52s-1.09-1.14-1.63-1.72l-1-1.12c-.34-.37-.68-.76-1-1.14s-.68-.76-1-1.15c-.68-.77-1.33-1.56-2-2.36s-1.18-1.45-1.75-2.2a2.88,2.88,0,0,1-.22-.27c-.63-.8-1.24-1.61-1.85-2.44s-1.21-1.63-1.81-2.47c-1.59-2.24-3.14-4.55-4.63-6.92-.4-.62-.79-1.25-1.18-1.89s-.66-1.08-1-1.63-.5-.86-.76-1.29c-2.46-4.19-4.76-8.52-6.88-12.95l-.93-2c-1.13-2.42-2.21-4.89-3.24-7.36-.32-.76-.63-1.51-.93-2.26l-.24-.62-.06-.13a190.74,190.74,0,0,1-8.52-27.21c-.24-1.05-.48-2.11-.71-3.16v0c-.13-.63-.26-1.26-.38-1.87-.5-2.5-.93-5-1.3-7.4-.1-.6-.18-1.21-.26-1.82s-.17-1.21-.25-1.81c-.27-2.21-.5-4.38-.66-6.52,0-.35-.06-.68-.07-1,0-.69-.09-1.38-.13-2.06-.14-2.73-.2-5.4-.15-8l.06-1.9c0-.43,0-.86.05-1.28.14-2.84.34-5.69.64-8.5.15-1.33.31-2.65.49-4s.4-2.6.63-3.89c.15-.85.32-1.72.5-2.56a72.17,72.17,0,0,1,3.46-11.77c.26-.62.51-1.23.77-1.84,0,0,0,0,0,0a47,47,0,0,1,7.71-12.4c.59-.66,1.19-1.31,1.83-1.94.94-.93,1.94-1.83,3-2.69a42.07,42.07,0,0,1,15.3-7.77,2.18,2.18,0,0,1,1.66,0,1.72,1.72,0,0,1,.44.28,3.32,3.32,0,0,1,.55.66h0c.31.89.65,1.8,1,2.72a68,68,0,0,0,3.37,7.08,2.79,2.79,0,0,1,.16,2.27,2.52,2.52,0,0,1-.21.4,3.37,3.37,0,0,1-.28.38h0a1.21,1.21,0,0,1-.23.22,1.42,1.42,0,0,1-.25.24l-.28.21h0a4.86,4.86,0,0,1-.54.33,3.5,3.5,0,0,1-.42.24l-.5.24-.52.22-.54.2h0a5.89,5.89,0,0,1-.59.21c-.59.21-1.23.39-1.88.57l-.67.18-2,.51-1.27.31h0l-.08,0c-1.45.36-2.85.72-4.08,1.14A9.62,9.62,0,0,0,148.09,70h0A11.89,11.89,0,0,0,146,71.67l-.43.44c-.28.3-.52.61-.76.92A10.15,10.15,0,0,0,143,77.79a16.6,16.6,0,0,0,.91,7.35c.21.64.46,1.29.73,1.93a36.72,36.72,0,0,0,4.51,7.57c.68.9,1.4,1.77,2.16,2.6.37.41.75.82,1.14,1.22a38.23,38.23,0,0,0,6,5.06s.05,0,.07,0l0,0a20.21,20.21,0,0,0,5,2.5h0A93.12,93.12,0,0,0,159,130.25v0c-1.43,25.06,6.69,50.94,22,71.9a113.5,113.5,0,0,0,11.51,13.48c.78.79,1.57,1.56,2.39,2.32s1.62,1.52,2.46,2.26q3.33,3,6.9,5.64,1.78,1.35,3.63,2.61c1.22.85,2.48,1.67,3.74,2.47A102.32,102.32,0,0,0,238.62,242.88Z"/><path class="cls-3" d="M263.09,16.23a90.92,90.92,0,0,1-36.93,15.41c-10.26,2-20.7,2.54-30.91,4.57a63.33,63.33,0,0,0-8.2,2l-.78.29a17.61,17.61,0,0,0-6.15,3.68c-.2.18-.38.37-.57.57a12.45,12.45,0,0,0-1.07,1.31,15.89,15.89,0,0,0-.94,1.5c-.12.22-.24.45-.35.68q-.28.6-.54,1.26c-.12.32-.24.66-.35,1s-.25.89-.36,1.36-.15.72-.22,1.09c0,.21-.07.42-.1.63s-.05.34-.07.52h0c-.2-.31-.4-.62-.58-.93-.09-.15-.17-.31-.27-.45s-.16-.31-.23-.46l-.23-.45a10.75,10.75,0,0,1-1.15-5.35,9.33,9.33,0,0,1,.14-1.17c.05-.24.1-.49.16-.73h0c.07-.24.14-.48.23-.73a11.56,11.56,0,0,1,.61-1.48l.21-.43.23-.42,0-.06c.14-.26.29-.51.44-.75a.37.37,0,0,0,.07-.12l.35-.52a2.43,2.43,0,0,1,.14-.2c.13-.19.26-.37.4-.54a1.73,1.73,0,0,1,.15-.2l.46-.57.17-.18c.14-.17.3-.34.46-.51a.43.43,0,0,1,.1-.09c.16-.18.33-.34.5-.51s.15-.13.22-.21l.51-.45c.16-.15.33-.28.51-.43a24.94,24.94,0,0,1,4.13-2.66l.7-.35.84-.4c.47-.22,1-.43,1.44-.62s.76-.3,1.14-.43l.3-.11,1-.32.49-.15c.68-.21,1.38-.4,2.07-.57a.32.32,0,0,1,.14,0c.37-.1.73-.18,1.1-.26l.88-.18c.28-.06.56-.12.85-.16.79-.15,1.59-.28,2.39-.39l.47-.06.47-.06.57-.08,1.48-.17h0l1.52-.15,1.52-.14,1.51-.13c.51,0,1-.08,1.52-.12l3-.26c17.77-1.64,35.45-3.68,52.23-10.29A1.76,1.76,0,0,1,263.09,16.23Z"/><path class="cls-3" d="M372.89,41.62a12.08,12.08,0,0,1-.38,1.16c-.06.12-.11.24-.16.36-.3.63-.61,1.25-.94,1.85s-.56,1-.86,1.56c-.1.17-.2.35-.31.52-.25.41-.49.82-.76,1.21a4.4,4.4,0,0,1-.3.45c-.22.35-.44.69-.68,1s-.29.42-.45.63c-.32.46-.66.92-1,1.35s-.57.71-.86,1.06l-.08.09c-.15.19-.32.38-.48.56l-.14.17q-.37.43-.78.84a.18.18,0,0,1-.07.08c-.17.19-.34.36-.51.53a.24.24,0,0,1-.1.1c-.24.26-.48.51-.75.76a5,5,0,0,1-.41.39l-1.21,1.12s0,0,0,0c-.39.34-.79.68-1.2,1l-.18.15-.54.42c-.37.3-.75.58-1.13.85-1.06.76-2.16,1.49-3.3,2.16-.54.32-1.1.64-1.66.94-.09.06-.19.1-.28.15-.44.23-.89.46-1.33.67l-.47.23c-.55.26-1.1.51-1.67.75-13.91,5.94-28.58,5.56-43.29,4.12a5.39,5.39,0,0,1-.94-.19l-.34-.13a.25.25,0,0,0-.11,0l-.26-.15a2.56,2.56,0,0,1-.42-.28l-.29-.26a3.26,3.26,0,0,1-.31-.33l-.14-.18a1.4,1.4,0,0,1-.13-.18l-.51-.77c-.34-.52-.69-1.05-1-1.59s-.71-1.11-1.08-1.7c-.57-.89-1.16-1.85-1.83-2.89.8.17,1.59.33,2.38.47s1.43.26,2.14.38l.23,0c1.61.27,3.21.5,4.8.68l1.5.17.16,0,1.25.12,2,.17,1.7.11h.2c.72,0,1.45.08,2.17.11l1.26.05,1.46,0c.75,0,1.51,0,2.26,0,.93,0,1.86,0,2.78,0,1.83,0,3.67-.11,5.5-.22h0c.91,0,1.83-.1,2.75-.17s1.9-.16,2.84-.27l.71-.08c.44-.06.87-.11,1.29-.18s.73-.1,1.09-.16c.55-.08,1.1-.17,1.65-.28l.83-.16c.51-.1,1-.21,1.51-.34s1-.24,1.56-.39c.32-.07.63-.16.94-.26s.69-.19,1-.31.69-.2,1-.31l.09,0c.48-.15,1-.32,1.42-.5s.94-.35,1.41-.55a40.82,40.82,0,0,0,5.47-2.7c.45-.25.89-.52,1.33-.8s.88-.57,1.31-.87a7.07,7.07,0,0,0,.63-.44c.39-.27.77-.55,1.15-.84s.52-.4.77-.61q.71-.56,1.38-1.14l.35-.31a.87.87,0,0,0,.11-.09l.45-.4c1.12-1,2.2-2,3.25-3.12.32-.32.63-.65.93-1q.67-.74,1.32-1.5T370.85,43l.63-.81c.42-.54.84-1.09,1.24-1.65h0s0,.06,0,.1a.25.25,0,0,1,0,.09,1.43,1.43,0,0,1,0,.16,0,0,0,0,1,0,0,.37.37,0,0,1,0,.09c0,.08,0,.14,0,.2a.43.43,0,0,1,0,.11A.62.62,0,0,1,372.89,41.62Z"/><path class="cls-3" d="M324,204.22v.53c-.08,1.38-.12,2.79-.31,4.17h0c0,.22-.06.43-.1.64s0,.31-.09.46-.08.37-.13.55a8,8,0,0,1-.29.95c0,.13-.09.27-.14.4l-.21.48-.24.47c-.2.37-.4.72-.61,1.06s-.41.64-.63.95l0,.05c-.19.27-.38.52-.57.78a2.61,2.61,0,0,1-.22.27c-.2.27-.41.51-.62.76,0,0,0,0,0,0-.26.28-.51.55-.78.81a3.59,3.59,0,0,1-.39.39,14.43,14.43,0,0,1-2.28,1.8l-.48.3c-.16.1-.34.19-.5.28l-.51.26-.64.29a.23.23,0,0,1-.1,0l-.75.29c-.29.11-.58.2-.88.29l-.67.17-.71.16a14.81,14.81,0,0,1-1.49.2l-.75.05-.77,0q-.75,0-1.53-.06c-.43,0-.84-.09-1.25-.15l-.6-.09c-.59-.1-1.17-.23-1.73-.38l-.44-.13-.86-.28c-.4-.15-.79-.3-1.18-.47s-.66-.31-1-.49a16.14,16.14,0,0,1-2-1.24c-.14-.1-.26-.2-.39-.31s-.46-.38-.68-.58l-.46-.43c-.14-.15-.29-.29-.43-.45a5.74,5.74,0,0,1-.41-.45l-.56-.66-.36-.49L294,215l-.33-.5a.08.08,0,0,0,0,0c-.22-.35-.43-.72-.63-1.09a.93.93,0,0,1-.05-.1c-.09-.16-.17-.32-.25-.48a1.86,1.86,0,0,0-.1-.2c-.1-.24-.22-.49-.34-.75,0-.08-.07-.17-.1-.26s-.17-.41-.25-.62-.25-.66-.36-1-.29-.83-.42-1.26c-.08-.24-.16-.47-.22-.71s-.19-.66-.28-1-.16-.61-.22-.92c0-.11-.05-.22-.07-.32-.07-.26-.12-.51-.17-.78a26.41,26.41,0,0,1-.48-4.81c0-.12,0-.24,0-.36a4.34,4.34,0,0,0-.06-.64c0-.17,0-.32-.08-.48a2.55,2.55,0,0,0-.11-.33,1.69,1.69,0,0,0-.11-.27,1.79,1.79,0,0,0-.13-.22.53.53,0,0,0-.11-.15.42.42,0,0,0-.12-.15l-.1-.11-.08-.07-.09-.06a.67.67,0,0,0-.19-.14l-.24-.13L288,197l-.28-.1-.23-.06a6.24,6.24,0,0,0-.69-.11,3.36,3.36,0,0,1-1.53-.44,1.71,1.71,0,0,1-.26-.21c-.66-.67-.41-1.77.36-3,1.12-1.87,2.49-2.48,4.24-2a6,6,0,0,1,.6.2l.64.3h0l.74.42.65.47a6.93,6.93,0,0,1,.64.56l.13.14.06.06.09.1.1.11.18.22c0,.07.11.13.15.2a2.26,2.26,0,0,1,.23.31,3.73,3.73,0,0,1,.25.39,5.7,5.7,0,0,1,.32.6,9.05,9.05,0,0,1,.5,1.25c.07.22.13.45.19.67s.1.38.13.57a5,5,0,0,1,.11.53c.05.21.07.41.1.62s.05.31.07.47c.1.76.17,1.53.23,2.31a20.43,20.43,0,0,0,2.25,8.12c.2.36.41.72.62,1.07a14.26,14.26,0,0,0,.94,1.29,11.52,11.52,0,0,0,.82.88c.16.15.33.31.5.44s.34.29.51.42a9.66,9.66,0,0,0,2.88,1.5,9.35,9.35,0,0,0,1.26.33,4.53,4.53,0,0,0,.49.08h0a8.7,8.7,0,0,0,1,.09,11.61,11.61,0,0,0,1.76-.05,12,12,0,0,0,1.3-.2,8.51,8.51,0,0,0,1.28-.38,3.38,3.38,0,0,0,.52-.22,1.56,1.56,0,0,0,.26-.11l.15-.08.12-.06.34-.19.12-.07a2.2,2.2,0,0,0,.28-.18,6.6,6.6,0,0,0,.91-.66l.18-.15c.17-.15.34-.3.5-.47a10,10,0,0,0,1.44-1.74,3.24,3.24,0,0,0,.21-.35,5.62,5.62,0,0,0,.44-.8,2.39,2.39,0,0,0,.12-.22,5.27,5.27,0,0,0,.31-.74c0-.1.08-.2.11-.3a1.5,1.5,0,0,0,.11-.34,4.71,4.71,0,0,0,.19-.64.31.31,0,0,0,0-.09,3.48,3.48,0,0,0,.1-.44,6.18,6.18,0,0,0,.13-.75c.1-.79.17-1.58.2-2.36,0-.48,0-1,0-1.45a16,16,0,0,0-.16-1.82h0a9.63,9.63,0,0,0-.21-1.07.77.77,0,0,0-.07-.26,5.36,5.36,0,0,0-.14-.54,5.6,5.6,0,0,0-.17-.54,2.67,2.67,0,0,1-.09-.26c-.07-.18-.12-.35-.17-.52a4,4,0,0,1,.08-2.71,5.18,5.18,0,0,1,.7-1.18l.15-.17.15-.15a2.56,2.56,0,0,1,1.59-.7h.33l.13,0,.15,0h0a1.53,1.53,0,0,1,.32.13,1.19,1.19,0,0,1,.31.23,1.37,1.37,0,0,1,.16.18l.05.06,0,.07a2.82,2.82,0,0,1,.18.29c.05.11.11.24.15.35s.08.25.13.38l.12.37.08.29.09.28c.17.57.35,1.15.53,1.73.12.38.23.76.34,1.14s.18.58.26.87l.22.85v0c.08.28.14.56.2.84a5.86,5.86,0,0,1,.1.58c.05.24.09.49.12.74s.06.44.08.67V203c0,.05,0,.09,0,.14,0,.21,0,.41,0,.62S324,204.06,324,204.22Z"/><path class="cls-2" d="M250.6,118.07a1.65,1.65,0,0,1-.14.65l-.07.14a2.73,2.73,0,0,1-.2.25,1.77,1.77,0,0,1-.55.32l-.32.09a4.21,4.21,0,0,1-.63.06h-.23c-.42,0-.85,0-1.23,0l-.43,0c-5.08.07-8.83-2.29-10.15-6.23-.41-1.21-.77-2.41,1.13-2.56l1,0h.59c.49,0,1,0,1.46,0,.28,0,.56,0,.84.06l.58.08a4.85,4.85,0,0,1,.55.09,6.18,6.18,0,0,1,.62.12,4.61,4.61,0,0,1,.53.15c.19,0,.37.12.55.18l.53.21a7.48,7.48,0,0,1,.81.39l.21.13a1.23,1.23,0,0,1,.25.14l.25.17a8.47,8.47,0,0,1,1.21,1,1.89,1.89,0,0,1,.2.2,4,4,0,0,1,.35.37l.25.3c.1.11.19.23.29.36l.14.19.27.35c.27.35.54.71.77,1.07l.18.32a1.91,1.91,0,0,1,.16.32c0,.11.09.22.13.33a3,3,0,0,1,.09.32A2.2,2.2,0,0,1,250.6,118.07Z"/><path class="cls-2" d="M26.27,356.56l.21-7.61V289.61l-.1-7.61H44.94c12.72,0,19.19,7.4,19.19,19.08v.21c0,7.72-2.82,12.83-7.93,16v.41c5.95,2.82,9.49,8.35,9.49,16.69v.21c0,14.39-7.3,22-20.54,22Zm14.08-44.74h3.13c4.8,0,6.78-3.85,6.78-9.17v-.52c0-5.11-2.19-8.24-6.57-8.24H40.35Zm3.55,32.85c5.63,0,7.4-3.75,7.4-10.43v-.52c0-6.36-2.19-9.9-7.61-9.9H40.35v20.85Z"/><path class="cls-2" d="M110.22,282l-.1,7.61v48.08c0,12.93-7.41,20.12-19.3,20.12s-19.18-7.19-19.18-20.12V289.61L71.53,282H85.61l-.1,7.61v46.51c0,5.74,1.35,8.86,5.31,8.86s5.43-3.12,5.43-8.86V289.61L96.14,282Z"/><path class="cls-2" d="M119.08,356.56l.11-7.61V289.61l-.11-7.61h14.19l-.11,7.61v54.85h16.37v12.1Z"/><path class="cls-2" d="M155,356.56l.1-7.61V289.61L155,282h14.18l-.11,7.61v54.85h16.38v12.1Z"/><path class="cls-2" d="M200.84,356.56h-14L199.17,282h19.08l12.31,74.56H216.69l-2.08-14.81H202.82Zm3.75-27.22h8.24l-2.6-19.18c-.42-3.55-1-8.56-1.26-11.37h-.52c-.21,2.81-.73,7.82-1.25,11.37Z"/><path class="cls-2" d="M235.46,349V289.61l-.1-7.61h14.39l11.05,30.14c1.36,3.75,2.4,6.67,3.13,9.28h.31c-.1-2.71-.31-6.78-.31-9.7V289.61l-.1-7.61h13.66l-.11,7.61V349l.11,7.61H264.87L252,322.15c-1.46-4-2.4-6.68-3.13-9.28h-.31c0,2.71.31,6.77.31,9.69V349l.11,7.61H235.36Z"/><path class="cls-2" d="M301.37,282l-.11,7.61V349l.11,7.61H287.18l.11-7.61V289.61l-.11-7.61Z"/><path class="cls-2" d="M307.1,344.15h1.46c4.9,0,7.4-1.77,7.4-7.3V289.61l-.2-7.61h14.18l-.11,7.61v48.18c0,14.6-5.73,19.19-19.39,19.19H307.1Z"/><path class="cls-2" d="M348.4,356.56h-14L346.73,282h19.08l12.31,74.56H364.25l-2.09-14.81H350.38Zm3.75-27.22h8.24l-2.61-19.18c-.42-3.55-1-8.56-1.25-11.37H356c-.21,2.81-.73,7.82-1.25,11.37Z"/><path class="cls-1" d="M141.77,398.42v10l0,3.36h-6.25l0-3.36V382.22l0-3.35h8.09c7.14,0,8.93,4.46,8.93,9.89v.09c0,3.36-.88,6.26-3.31,8l3.95,14.95h-6.53l-3.22-13.34Zm0-5.11h1.15c2.85,0,3.4-2.07,3.4-4.55v-.09c0-2.49-.6-4.56-3.31-4.56h-1.24Z"/><path class="cls-1" d="M180.36,397.36v9.06h8v5.34H174.15l0-3.36V382.22l0-3.35h14.08v5.33h-7.87v7.69h6.35v5.47Z"/><path class="cls-1" d="M209.8,408.4V382.22l-.05-3.35h6.35L221,392.16c.6,1.66,1.06,2.95,1.38,4.1h.14c-.05-1.2-.14-3-.14-4.28v-9.76l-.05-3.35h6l-.05,3.35V408.4l.05,3.36h-5.57l-5.65-15.18c-.65-1.75-1.06-2.95-1.38-4.1h-.14c0,1.2.14,3,.14,4.28V408.4l0,3.36h-6Z"/><path class="cls-1" d="M260.49,384.2v24.2l.05,3.36h-6.21l0-3.36V384.2h-5.24v-5.33h16.65v5.33Z"/><path class="cls-1" d="M0,255.89V386.22H123v-8H8V263.89H396.39V378.22h-115v8h123V255.89Z"/></g></g></svg>